<?xml version="1.0" encoding="UTF-8"?>
<svg xmlns="http://www.w3.org/2000/svg" xmlns:xlink="http://www.w3.org/1999/xlink" width="40pt" height="55pt" viewBox="0 0 40 55" version="1.1">
<g id="surface1">
<path style=" stroke:none;fill-rule:nonzero;fill:rgb(0%,0%,0%);fill-opacity:1;" d="M 18.832031 0.695312 C 17.308594 1.0625 16.140625 1.675781 15.179688 2.613281 C 14.742188 3.039062 14.3125 3.5625 14.3125 3.660156 C 14.3125 3.699219 14.289062 3.730469 14.253906 3.730469 C 14.222656 3.730469 14.167969 3.792969 14.148438 3.863281 C 14.128906 3.933594 14.070312 4.035156 14.03125 4.074219 C 13.984375 4.117188 13.851562 4.359375 13.734375 4.601562 C 12.882812 6.363281 12.777344 8.523438 13.476562 10.246094 C 13.601562 10.566406 13.910156 11.203125 14.082031 11.511719 C 14.242188 11.796875 14.980469 12.6875 15.265625 12.945312 C 15.679688 13.3125 15.96875 13.554688 16.003906 13.554688 C 16.035156 13.554688 16.429688 13.820312 16.492188 13.882812 C 16.667969 14.058594 18.378906 14.730469 18.648438 14.730469 C 18.714844 14.730469 18.734375 15.164062 18.734375 16.792969 L 18.734375 18.855469 L 18.523438 18.855469 C 18.039062 18.855469 16.167969 19.140625 15.203125 19.359375 C 14.300781 19.5625 12.472656 20.113281 11.9375 20.34375 C 11.8125 20.394531 11.621094 20.480469 11.511719 20.527344 C 10.777344 20.835938 9.816406 21.285156 9.761719 21.34375 C 9.742188 21.363281 9.609375 21.4375 9.464844 21.507812 C 9.207031 21.632812 8.621094 21.980469 8.257812 22.210938 C 8.160156 22.273438 8.015625 22.359375 7.933594 22.398438 C 7.847656 22.445312 7.785156 22.503906 7.785156 22.535156 C 7.785156 22.5625 7.75 22.589844 7.71875 22.589844 C 7.636719 22.589844 7.234375 22.859375 7.203125 22.929688 C 7.191406 22.960938 7.136719 22.980469 7.085938 22.980469 C 7.03125 22.980469 6.992188 23.007812 6.992188 23.042969 C 6.992188 23.074219 6.859375 23.183594 6.695312 23.289062 C 6.53125 23.386719 6.398438 23.492188 6.398438 23.519531 C 6.398438 23.550781 6.359375 23.570312 6.304688 23.570312 C 6.253906 23.570312 6.199219 23.597656 6.1875 23.625 C 6.175781 23.65625 5.929688 23.878906 5.640625 24.128906 C 4.980469 24.691406 3.773438 25.890625 3.296875 26.453125 C 3.101562 26.6875 2.914062 26.890625 2.894531 26.910156 C 2.875 26.929688 2.613281 27.265625 2.320312 27.664062 C 2.023438 28.054688 1.753906 28.417969 1.714844 28.460938 C 1.683594 28.507812 1.648438 28.554688 1.648438 28.574219 C 1.648438 28.585938 1.53125 28.777344 1.386719 28.992188 C 0.832031 29.824219 0.660156 30.203125 0.660156 30.589844 C 0.660156 32.304688 2.910156 32.824219 3.734375 31.296875 C 3.9375 30.925781 4.5 30.085938 4.558594 30.066406 C 4.589844 30.054688 4.617188 30.015625 4.617188 29.976562 C 4.617188 29.917969 5.164062 29.167969 5.308594 29.039062 C 5.347656 29 5.5 28.828125 5.644531 28.644531 C 6.082031 28.097656 7.242188 26.964844 8.054688 26.289062 C 8.707031 25.746094 10.144531 24.75 10.285156 24.75 C 10.316406 24.75 10.355469 24.722656 10.371094 24.699219 C 10.421875 24.558594 12.421875 23.558594 12.996094 23.375 C 13.085938 23.34375 13.324219 23.257812 13.523438 23.179688 C 13.71875 23.101562 13.976562 23.015625 14.082031 22.980469 C 14.195312 22.957031 14.355469 22.902344 14.445312 22.871094 C 14.710938 22.765625 15.296875 22.601562 15.796875 22.496094 C 16.054688 22.445312 16.425781 22.367188 16.621094 22.328125 C 16.980469 22.25 17.214844 22.222656 18.734375 22.066406 C 20.230469 21.910156 22.578125 22.089844 24.339844 22.496094 C 25.144531 22.6875 26.320312 23.042969 26.410156 23.125 C 26.453125 23.152344 26.535156 23.179688 26.601562 23.179688 C 26.667969 23.179688 26.808594 23.21875 26.898438 23.269531 C 27 23.324219 27.210938 23.414062 27.375 23.472656 C 27.691406 23.597656 29.292969 24.363281 29.355469 24.421875 C 29.375 24.441406 29.652344 24.613281 29.980469 24.808594 C 30.59375 25.183594 31.484375 25.796875 31.515625 25.875 C 31.53125 25.910156 31.582031 25.929688 31.636719 25.929688 C 31.6875 25.929688 31.726562 25.953125 31.726562 25.980469 C 31.726562 26.015625 31.828125 26.113281 31.953125 26.195312 C 32.421875 26.53125 33.613281 27.644531 34.101562 28.195312 C 35.03125 29.253906 36.28125 30.949219 36.28125 31.160156 C 36.28125 31.199219 36.304688 31.230469 36.339844 31.230469 C 36.371094 31.230469 36.425781 31.292969 36.445312 31.363281 C 36.464844 31.433594 36.582031 31.597656 36.703125 31.722656 C 37.691406 32.765625 39.445312 32.0625 39.445312 30.625 C 39.445312 30.269531 39.40625 30.140625 39.207031 29.753906 C 39.078125 29.503906 38.945312 29.289062 38.917969 29.269531 C 38.898438 29.25 38.851562 29.1875 38.832031 29.136719 C 38.726562 28.921875 38.1875 28.136719 38.113281 28.101562 C 38.082031 28.089844 38.0625 28.035156 38.0625 27.984375 C 38.0625 27.933594 38.039062 27.894531 38.015625 27.894531 C 37.980469 27.894531 37.875 27.761719 37.777344 27.597656 C 37.671875 27.433594 37.558594 27.304688 37.527344 27.304688 C 37.492188 27.304688 37.46875 27.257812 37.46875 27.207031 C 37.46875 27.152344 37.441406 27.105469 37.414062 27.105469 C 37.382812 27.105469 37.28125 27.003906 37.191406 26.878906 C 36.925781 26.503906 35.277344 24.75 35.191406 24.75 C 35.179688 24.75 35.046875 24.632812 34.894531 24.488281 C 34.742188 24.34375 34.480469 24.113281 34.3125 23.984375 C 34.140625 23.851562 33.976562 23.707031 33.9375 23.667969 C 33.804688 23.53125 33.046875 22.980469 32.980469 22.980469 C 32.941406 22.980469 32.914062 22.957031 32.914062 22.929688 C 32.914062 22.863281 31.894531 22.195312 31.792969 22.195312 C 31.761719 22.195312 31.726562 22.171875 31.726562 22.136719 C 31.726562 22.105469 31.667969 22.050781 31.597656 22.03125 C 31.523438 22.011719 31.425781 21.953125 31.378906 21.914062 C 31.332031 21.867188 31.132812 21.75 30.9375 21.644531 C 30.738281 21.542969 30.328125 21.332031 30.03125 21.175781 C 29.730469 21.019531 29.226562 20.78125 28.910156 20.652344 C 28.589844 20.519531 28.238281 20.371094 28.121094 20.324219 C 28.007812 20.269531 27.894531 20.230469 27.871094 20.230469 C 27.84375 20.230469 27.730469 20.191406 27.617188 20.148438 C 27.316406 20.015625 26.992188 19.910156 26.582031 19.792969 C 26.386719 19.742188 26.132812 19.667969 26.023438 19.636719 C 25.164062 19.402344 23.65625 19.085938 23.054688 19.027344 C 22.835938 19.007812 22.445312 18.957031 22.183594 18.917969 L 21.707031 18.835938 L 21.6875 15.878906 L 21.667969 12.917969 L 21.472656 12.664062 C 21.09375 12.164062 20.746094 11.980469 20.171875 11.980469 C 19.941406 11.980469 19.53125 11.921875 19.253906 11.859375 C 18.753906 11.734375 17.875 11.347656 17.875 11.25 C 17.875 11.222656 17.835938 11.195312 17.796875 11.195312 C 17.660156 11.195312 16.867188 10.402344 16.640625 10.042969 C 16.21875 9.375 15.949219 8.460938 15.957031 7.699219 C 15.957031 7.332031 16.101562 6.582031 16.238281 6.21875 C 16.476562 5.585938 17.164062 4.714844 17.777344 4.257812 C 18.007812 4.085938 18.734375 3.730469 18.851562 3.730469 C 18.917969 3.730469 19.011719 3.691406 19.050781 3.648438 C 19.109375 3.59375 19.433594 3.5625 20.054688 3.546875 C 20.792969 3.527344 21.046875 3.546875 21.351562 3.640625 C 22.195312 3.890625 23.054688 4.4375 23.488281 4.988281 C 23.613281 5.144531 23.734375 5.277344 23.761719 5.289062 C 23.792969 5.304688 23.8125 5.34375 23.8125 5.375 C 23.8125 5.480469 24.042969 5.671875 24.367188 5.828125 C 24.628906 5.953125 24.75 5.972656 25.105469 5.9375 C 25.613281 5.898438 25.964844 5.703125 26.234375 5.289062 C 26.390625 5.054688 26.417969 4.957031 26.417969 4.511719 C 26.417969 4.035156 26.40625 3.988281 26.15625 3.628906 C 25.632812 2.882812 24.730469 2.03125 24.011719 1.617188 C 23.746094 1.464844 23.554688 1.367188 22.957031 1.085938 C 22.742188 0.980469 22.183594 0.820312 21.621094 0.6875 C 21.042969 0.554688 19.386719 0.5625 18.832031 0.695312 Z M 18.832031 0.695312 "/>
<path style=" stroke:none;fill-rule:nonzero;fill:rgb(0%,0%,0%);fill-opacity:1;" d="M 18.535156 25.796875 C 18.371094 25.824219 18.09375 25.871094 17.910156 25.890625 C 17.128906 26 15.242188 26.511719 15.078125 26.65625 C 15.039062 26.6875 14.972656 26.714844 14.921875 26.714844 C 14.714844 26.714844 12.40625 27.90625 12.347656 28.035156 C 12.335938 28.070312 12.296875 28.089844 12.261719 28.089844 C 12.171875 28.089844 10.890625 29.046875 10.671875 29.28125 C 10.574219 29.378906 10.480469 29.464844 10.460938 29.464844 C 10.382812 29.464844 9.355469 30.550781 8.9375 31.070312 C 8.792969 31.246094 8.65625 31.402344 8.628906 31.414062 C 8.59375 31.429688 8.574219 31.480469 8.574219 31.527344 C 8.574219 31.574219 8.546875 31.625 8.523438 31.636719 C 8.464844 31.65625 7.835938 32.566406 7.757812 32.738281 C 7.738281 32.789062 7.652344 32.941406 7.578125 33.066406 C 7.5 33.191406 7.335938 33.496094 7.210938 33.753906 C 7.085938 34 6.953125 34.269531 6.914062 34.335938 C 6.875 34.40625 6.820312 34.539062 6.792969 34.628906 C 6.761719 34.722656 6.675781 34.964844 6.597656 35.160156 C 5.921875 36.875 5.621094 39.109375 5.777344 41.203125 C 5.859375 42.277344 5.921875 42.703125 6.113281 43.476562 C 6.273438 44.117188 6.5625 45.046875 6.722656 45.40625 C 6.753906 45.480469 6.832031 45.65625 6.894531 45.800781 C 7.039062 46.132812 7.605469 47.292969 7.652344 47.339844 C 7.671875 47.359375 7.804688 47.5625 7.941406 47.796875 C 8.910156 49.382812 10.601562 51.085938 12.335938 52.21875 C 12.777344 52.503906 12.824219 52.53125 13.753906 52.988281 C 14.78125 53.492188 15.269531 53.691406 16.0625 53.917969 C 16.28125 53.984375 16.589844 54.078125 16.746094 54.121094 C 16.914062 54.175781 17.125 54.214844 17.222656 54.214844 C 17.320312 54.214844 17.488281 54.246094 17.578125 54.28125 C 17.679688 54.320312 18.296875 54.398438 18.953125 54.457031 C 19.972656 54.546875 20.296875 54.554688 21.199219 54.484375 C 22.242188 54.402344 22.929688 54.304688 23.714844 54.109375 C 24.289062 53.964844 25.546875 53.554688 25.621094 53.488281 C 25.660156 53.453125 25.726562 53.429688 25.773438 53.429688 C 25.851562 53.429688 27.050781 52.859375 27.339844 52.6875 C 27.46875 52.609375 27.871094 52.367188 28.132812 52.203125 C 28.207031 52.160156 28.332031 52.085938 28.417969 52.046875 C 28.496094 52 28.5625 51.941406 28.5625 51.910156 C 28.5625 51.882812 28.601562 51.855469 28.65625 51.855469 C 28.707031 51.855469 28.761719 51.832031 28.773438 51.804688 C 28.785156 51.777344 28.910156 51.667969 29.058594 51.5625 C 29.539062 51.203125 29.644531 51.109375 30.480469 50.285156 C 31.4375 49.34375 32.71875 47.699219 32.71875 47.417969 C 32.71875 47.371094 32.742188 47.339844 32.769531 47.339844 C 32.816406 47.339844 33.410156 46.207031 33.574219 45.800781 C 33.609375 45.730469 33.695312 45.53125 33.761719 45.367188 C 33.832031 45.199219 33.910156 44.96875 33.9375 44.859375 C 33.957031 44.746094 34.011719 44.640625 34.042969 44.621094 C 34.078125 44.597656 34.101562 44.511719 34.101562 44.425781 C 34.101562 44.332031 34.140625 44.152344 34.195312 44.019531 C 34.242188 43.882812 34.332031 43.546875 34.386719 43.28125 C 34.445312 43.011719 34.53125 42.625 34.570312 42.429688 C 34.617188 42.21875 34.664062 41.367188 34.683594 40.410156 C 34.710938 38.710938 34.65625 38.042969 34.394531 36.929688 C 34.214844 36.167969 33.859375 35.042969 33.761719 34.929688 C 33.734375 34.898438 33.707031 34.832031 33.707031 34.78125 C 33.707031 34.683594 32.929688 33.089844 32.71875 32.769531 C 32.480469 32.398438 32.386719 32.246094 32.347656 32.128906 C 32.328125 32.070312 32.28125 32.019531 32.257812 32.019531 C 32.222656 32.019531 32.125 31.886719 32.03125 31.722656 C 31.933594 31.558594 31.828125 31.429688 31.792969 31.429688 C 31.753906 31.429688 31.726562 31.390625 31.726562 31.335938 C 31.726562 31.285156 31.707031 31.230469 31.683594 31.21875 C 31.648438 31.207031 31.511719 31.046875 31.367188 30.871094 C 31.015625 30.433594 29.816406 29.253906 29.445312 29 C 29.289062 28.882812 29.15625 28.765625 29.15625 28.730469 C 29.15625 28.703125 29.109375 28.679688 29.058594 28.679688 C 29.003906 28.679688 28.957031 28.652344 28.957031 28.621094 C 28.957031 28.574219 27.960938 27.894531 27.539062 27.65625 C 27.242188 27.488281 26.070312 26.921875 25.792969 26.8125 C 25.625 26.753906 25.441406 26.675781 25.382812 26.640625 C 25.105469 26.5 23.925781 26.15625 23.285156 26.035156 C 23.015625 25.980469 22.613281 25.902344 22.394531 25.855469 C 21.9375 25.765625 18.984375 25.71875 18.535156 25.796875 Z M 22.425781 29.367188 C 22.988281 29.492188 24.058594 29.816406 24.40625 29.96875 C 24.960938 30.210938 25.988281 30.742188 25.988281 30.785156 C 25.988281 30.8125 26.023438 30.839844 26.054688 30.839844 C 26.132812 30.839844 26.535156 31.109375 26.570312 31.179688 C 26.582031 31.210938 26.636719 31.230469 26.6875 31.230469 C 26.742188 31.230469 26.78125 31.25 26.78125 31.285156 C 26.78125 31.3125 26.855469 31.375 26.9375 31.429688 C 27.527344 31.789062 29.15625 33.464844 29.15625 33.714844 C 29.15625 33.753906 29.183594 33.785156 29.214844 33.785156 C 29.308594 33.785156 30.097656 35.140625 30.335938 35.71875 C 30.457031 36.003906 30.59375 36.328125 30.644531 36.425781 C 30.699219 36.527344 30.738281 36.660156 30.738281 36.726562 C 30.738281 36.871094 31.035156 37.628906 31.148438 37.761719 C 31.207031 37.832031 31.207031 37.863281 31.140625 37.902344 C 31.082031 37.945312 31.074219 38.023438 31.128906 38.210938 C 31.160156 38.347656 31.195312 38.539062 31.195312 38.632812 C 31.195312 38.722656 31.214844 39.234375 31.238281 39.777344 C 31.285156 40.871094 31.226562 41.472656 30.9375 42.816406 C 30.59375 44.386719 29.480469 46.375 28.21875 47.667969 C 27.730469 48.171875 27.117188 48.714844 27.042969 48.714844 C 27.003906 48.714844 26.980469 48.742188 26.980469 48.773438 C 26.980469 48.851562 25.851562 49.566406 25.265625 49.859375 C 24.414062 50.285156 23.6875 50.574219 23.21875 50.679688 C 23.09375 50.703125 22.855469 50.757812 22.691406 50.796875 C 21.945312 50.980469 21.324219 51.039062 20.25 51.039062 C 18.878906 51.039062 18.125 50.933594 16.917969 50.574219 C 16.132812 50.339844 15.066406 49.855469 14.523438 49.492188 C 14.367188 49.390625 14.222656 49.304688 14.203125 49.304688 C 14.183594 49.304688 14.058594 49.210938 13.917969 49.105469 C 13.78125 48.996094 13.65625 48.910156 13.632812 48.910156 C 13.484375 48.910156 11.859375 47.300781 11.425781 46.71875 C 11.238281 46.460938 11.0625 46.226562 11.027344 46.195312 C 11.003906 46.152344 10.957031 46.082031 10.929688 46.03125 C 10.902344 45.976562 10.824219 45.839844 10.753906 45.734375 C 10.679688 45.625 10.585938 45.460938 10.546875 45.355469 C 10.507812 45.257812 10.449219 45.179688 10.414062 45.179688 C 10.382812 45.179688 10.355469 45.132812 10.355469 45.074219 C 10.355469 45.015625 10.316406 44.890625 10.265625 44.796875 C 10.179688 44.636719 10.097656 44.453125 9.886719 43.96875 C 9.789062 43.730469 9.671875 43.34375 9.503906 42.691406 C 9.101562 41.117188 9.089844 39.3125 9.464844 37.734375 C 9.519531 37.511719 9.566406 37.257812 9.566406 37.164062 C 9.566406 37.074219 9.589844 36.992188 9.625 36.992188 C 9.65625 36.992188 9.703125 36.890625 9.730469 36.757812 C 9.75 36.628906 9.820312 36.417969 9.875 36.28125 C 9.933594 36.148438 10.039062 35.914062 10.113281 35.75 C 10.304688 35.304688 10.738281 34.453125 10.816406 34.375 C 10.917969 34.277344 11.148438 33.910156 11.148438 33.851562 C 11.148438 33.820312 11.175781 33.785156 11.199219 33.785156 C 11.226562 33.785156 11.300781 33.699219 11.367188 33.597656 C 11.628906 33.15625 12.816406 31.957031 13.507812 31.433594 C 14.433594 30.746094 15.105469 30.359375 16.027344 29.988281 C 16.636719 29.746094 16.839844 29.679688 17.25 29.574219 C 17.46875 29.515625 17.777344 29.4375 17.941406 29.398438 C 18.488281 29.253906 19.148438 29.207031 20.546875 29.234375 C 21.542969 29.25 22.070312 29.289062 22.425781 29.367188 Z M 22.425781 29.367188 "/>
<path style=" stroke:none;fill-rule:nonzero;fill:rgb(0%,0%,0%);fill-opacity:1;" d="M 14.414062 33.941406 C 14.03125 34.046875 13.78125 34.199219 13.46875 34.507812 C 13.144531 34.828125 13.027344 35.179688 13.085938 35.640625 C 13.121094 35.953125 13.191406 36.109375 14.214844 38.207031 C 14.511719 38.8125 14.972656 39.757812 15.238281 40.300781 C 15.5 40.835938 15.9375 41.742188 16.207031 42.296875 C 16.484375 42.855469 16.984375 43.875 17.320312 44.5625 C 17.664062 45.25 17.941406 45.847656 17.941406 45.890625 C 17.941406 45.929688 17.976562 45.964844 18.007812 45.964844 C 18.046875 45.964844 18.074219 45.996094 18.074219 46.035156 C 18.074219 46.082031 18.191406 46.355469 18.335938 46.660156 C 18.84375 47.710938 19.519531 48.125 20.621094 48.039062 C 21.027344 48.007812 21.1875 47.960938 21.484375 47.785156 C 21.683594 47.667969 21.925781 47.464844 22.023438 47.339844 C 22.210938 47.105469 23.484375 44.597656 23.484375 44.464844 C 23.484375 44.425781 23.515625 44.394531 23.546875 44.394531 C 23.589844 44.394531 23.613281 44.355469 23.613281 44.300781 C 23.613281 44.25 23.746094 43.949219 23.90625 43.625 C 24.070312 43.3125 24.460938 42.519531 24.769531 41.871094 C 25.085938 41.222656 25.574219 40.222656 25.859375 39.644531 C 26.132812 39.070312 26.578125 38.171875 26.828125 37.648438 C 27.84375 35.574219 27.855469 35.535156 27.671875 35.042969 C 27.507812 34.617188 27.394531 34.472656 27.011719 34.21875 C 26.246094 33.714844 25.328125 33.738281 24.769531 34.285156 C 24.511719 34.527344 24.332031 34.847656 23.84375 35.914062 C 23.746094 36.128906 23.570312 36.507812 23.449219 36.765625 C 23.21875 37.257812 22.871094 38.015625 22.722656 38.335938 C 22.671875 38.441406 22.5 38.8125 22.335938 39.15625 C 22.175781 39.496094 21.964844 39.953125 21.867188 40.167969 C 21.5625 40.84375 21.492188 41 21.175781 41.675781 C 21.007812 42.035156 20.785156 42.515625 20.679688 42.734375 C 20.574219 42.964844 20.46875 43.148438 20.441406 43.148438 C 20.394531 43.148438 20.324219 43.003906 20.019531 42.332031 C 19.921875 42.113281 19.710938 41.65625 19.550781 41.316406 C 19.386719 40.976562 19.214844 40.601562 19.167969 40.496094 C 19.117188 40.386719 18.992188 40.109375 18.878906 39.875 C 18.570312 39.21875 17.933594 37.859375 17.613281 37.15625 C 17.546875 37.015625 17.363281 36.613281 17.195312 36.273438 C 16.746094 35.335938 16.492188 34.761719 16.492188 34.707031 C 16.492188 34.683594 16.359375 34.527344 16.195312 34.355469 C 15.738281 33.902344 15.078125 33.746094 14.414062 33.941406 Z M 14.414062 33.941406 "/>
</g>
</svg>
