<?xml version="1.0" standalone="no"?>
<!DOCTYPE svg PUBLIC "-//W3C//DTD SVG 20010904//EN"
 "http://www.w3.org/TR/2001/REC-SVG-20010904/DTD/svg10.dtd">
<svg version="1.0" xmlns="http://www.w3.org/2000/svg"
 width="1500.000000pt" height="1600.000000pt" viewBox="0 0 1500.000000 1600.000000"
 preserveAspectRatio="xMidYMid meet">
<metadata>
Created by potrace 1.16, written by Peter Selinger 2001-2019
</metadata>
<g transform="translate(0.000000,1600.000000) scale(0.100000,-0.100000)"
fill="#000000" stroke="none">
<path d="M7315 12624 c-231 -56 -408 -150 -554 -293 -66 -65 -131 -145 -131
-160 0 -6 -4 -11 -9 -11 -5 0 -13 -9 -16 -20 -3 -11 -12 -26 -18 -32 -7 -7
-27 -44 -45 -81 -129 -269 -145 -599 -39 -862 19 -49 66 -146 92 -193 24 -44
136 -180 179 -219 63 -56 107 -93 112 -93 5 0 65 -41 74 -50 27 -27 286 -130
327 -130 10 0 13 -66 13 -315 l0 -315 -32 0 c-73 0 -357 -43 -503 -77 -137
-31 -414 -115 -495 -150 -19 -8 -48 -21 -65 -28 -111 -47 -257 -116 -265 -125
-3 -3 -23 -14 -45 -25 -39 -19 -128 -72 -183 -107 -15 -10 -37 -23 -49 -29
-13 -7 -23 -16 -23 -21 0 -4 -5 -8 -10 -8 -12 0 -73 -41 -78 -52 -2 -5 -10 -8
-18 -8 -8 0 -14 -4 -14 -9 0 -5 -20 -22 -45 -38 -25 -15 -45 -31 -45 -35 0 -5
-6 -8 -14 -8 -8 0 -16 -4 -18 -8 -1 -5 -39 -39 -83 -77 -100 -86 -283 -269
-355 -355 -30 -36 -58 -67 -61 -70 -3 -3 -43 -54 -87 -115 -45 -60 -86 -115
-92 -122 -5 -7 -10 -14 -10 -17 0 -2 -18 -31 -40 -64 -84 -127 -110 -185 -110
-244 0 -262 341 -341 466 -108 31 57 116 185 125 188 5 2 9 8 9 14 0 9 83 123
105 143 6 6 29 32 51 60 66 84 242 257 365 360 99 83 317 235 338 235 5 0 11
4 13 8 8 21 311 174 398 202 14 5 50 18 80 30 30 12 69 25 85 30 17 4 41 12
55 17 40 16 129 41 205 57 39 8 95 20 125 26 54 12 90 16 320 40 227 24 583
-4 850 -66 122 -29 300 -83 314 -96 6 -4 19 -8 29 -8 10 0 31 -6 45 -14 15 -8
47 -22 72 -31 48 -19 291 -136 300 -145 3 -3 45 -29 95 -59 93 -57 228 -151
233 -163 2 -5 10 -8 18 -8 8 0 14 -4 14 -8 0 -5 15 -20 34 -33 71 -51 252
-221 326 -305 141 -162 330 -421 330 -453 0 -6 4 -11 9 -11 5 0 13 -9 16 -20
3 -11 21 -36 39 -55 150 -159 416 -52 416 168 0 54 -6 74 -36 133 -20 38 -40
71 -44 74 -3 3 -10 12 -13 20 -16 33 -98 153 -109 158 -5 2 -8 10 -8 18 0 8
-3 14 -7 14 -5 0 -21 20 -36 45 -16 25 -33 45 -38 45 -5 0 -9 7 -9 15 0 8 -4
15 -8 15 -5 0 -20 16 -34 35 -40 57 -290 325 -303 325 -2 0 -22 18 -45 40 -23
22 -63 57 -88 77 -26 20 -51 42 -57 48 -20 21 -135 105 -145 105 -6 0 -10 4
-10 8 0 10 -155 112 -170 112 -5 0 -10 4 -10 9 0 5 -9 13 -20 16 -11 3 -26 12
-33 18 -7 7 -37 25 -67 41 -30 16 -92 48 -137 72 -46 24 -122 60 -170 80 -49
20 -102 43 -120 50 -17 8 -34 14 -38 14 -4 0 -21 6 -38 13 -46 20 -95 36 -157
54 -30 8 -68 19 -85 24 -130 36 -359 84 -450 93 -33 3 -92 11 -132 17 l-72 12
-3 452 -3 452 -30 39 c-57 76 -110 104 -197 104 -35 0 -97 9 -139 19 -76 19
-209 78 -209 93 0 4 -6 8 -12 8 -21 0 -141 121 -175 176 -64 102 -105 242
-104 358 0 56 22 171 43 226 36 97 140 230 233 300 35 26 145 80 163 80 10 0
24 6 30 13 9 8 58 13 152 15 112 3 151 0 197 -14 128 -38 258 -122 324 -206
19 -24 37 -44 41 -46 5 -2 8 -8 8 -13 0 -16 35 -45 84 -69 40 -19 58 -22 112
-17 77 6 130 36 171 99 24 36 28 51 28 119 0 73 -2 80 -40 135 -79 114 -216
244 -325 307 -40 23 -69 38 -160 81 -32 16 -117 41 -202 61 -88 20 -339 19
-423 -1z"/>
<path d="M7270 8790 c-25 -4 -67 -11 -95 -14 -118 -17 -404 -95 -429 -117 -6
-5 -16 -9 -24 -9 -31 0 -381 -182 -390 -202 -2 -5 -8 -8 -13 -8 -14 0 -208
-146 -241 -182 -15 -15 -29 -28 -32 -28 -12 0 -168 -166 -231 -245 -22 -27
-43 -51 -47 -53 -5 -2 -8 -10 -8 -17 0 -7 -4 -15 -8 -17 -9 -3 -104 -142 -116
-168 -3 -8 -16 -31 -27 -50 -12 -19 -37 -66 -56 -105 -19 -38 -39 -79 -45 -89
-6 -11 -14 -31 -18 -45 -5 -14 -18 -51 -30 -81 -102 -262 -148 -603 -124 -923
12 -164 22 -229 51 -347 24 -98 68 -240 92 -295 5 -11 17 -38 26 -60 22 -51
108 -228 115 -235 3 -3 23 -34 44 -70 147 -242 403 -502 666 -675 67 -44 74
-48 215 -118 156 -77 230 -107 350 -142 33 -10 80 -24 104 -31 25 -8 57 -14
72 -14 15 0 40 -5 54 -10 15 -6 109 -18 208 -27 155 -14 204 -15 341 -4 158
12 262 27 381 57 87 22 278 85 289 95 6 5 16 9 23 9 12 0 194 87 238 113 19
12 80 49 120 74 11 7 30 18 43 24 12 7 22 16 22 21 0 4 6 8 14 8 8 0 16 4 18
8 2 4 21 21 43 37 73 55 89 69 216 195 145 144 339 395 339 438 0 7 4 12 8 12
7 0 97 173 122 235 5 11 18 41 28 66 11 26 23 61 27 78 3 17 11 33 16 36 5 4
9 17 9 30 0 14 6 42 14 62 7 21 21 72 29 113 9 41 22 100 28 130 7 32 14 162
17 308 4 260 -4 362 -44 532 -27 116 -81 288 -96 305 -4 5 -8 15 -8 23 0 15
-118 258 -150 307 -36 57 -50 80 -56 98 -3 9 -10 17 -14 17 -5 0 -20 20 -34
45 -15 25 -31 45 -36 45 -6 0 -10 6 -10 14 0 8 -3 16 -7 18 -5 2 -26 26 -48
53 -53 67 -235 247 -291 286 -24 18 -44 36 -44 41 0 4 -7 8 -15 8 -8 0 -15 4
-15 9 0 7 -151 111 -215 147 -45 26 -223 112 -265 129 -25 9 -53 21 -62 26
-42 22 -221 74 -318 93 -41 8 -102 20 -135 27 -69 14 -517 21 -585 9z m590
-545 c85 -19 247 -69 300 -92 84 -37 240 -118 240 -125 0 -4 5 -8 10 -8 12 0
73 -41 78 -52 2 -5 10 -8 18 -8 8 0 14 -3 14 -8 0 -4 11 -14 24 -22 89 -55
336 -311 336 -349 0 -6 4 -11 9 -11 14 0 134 -207 170 -295 18 -44 39 -93 47
-108 8 -16 14 -36 14 -46 0 -22 45 -138 62 -158 9 -11 9 -16 -1 -22 -9 -6 -10
-18 -2 -47 5 -21 10 -50 10 -64 0 -14 3 -92 7 -175 7 -167 -2 -259 -46 -464
-52 -240 -221 -544 -412 -741 -74 -77 -167 -160 -178 -160 -6 0 -10 -4 -10 -9
0 -12 -171 -121 -260 -166 -129 -65 -239 -109 -310 -125 -19 -4 -55 -12 -80
-18 -113 -28 -207 -37 -370 -37 -208 0 -322 16 -505 71 -119 36 -281 110 -363
165 -24 16 -46 29 -49 29 -3 0 -22 14 -43 30 -21 17 -40 30 -43 30 -23 0 -269
246 -335 335 -28 39 -55 75 -60 80 -4 6 -11 17 -15 25 -4 8 -16 29 -27 45 -11
17 -25 42 -31 58 -6 15 -15 27 -20 27 -5 0 -9 7 -9 16 0 9 -6 28 -14 42 -13
25 -25 53 -57 127 -15 36 -33 95 -58 195 -61 240 -63 516 -6 757 8 34 15 73
15 87 0 14 4 26 9 26 5 0 12 16 16 36 3 20 14 52 22 73 9 20 25 56 36 81 29
68 95 198 107 210 15 15 50 71 50 80 0 5 4 10 8 10 4 0 15 13 25 29 40 67 220
250 325 330 140 105 242 164 382 221 92 37 123 47 185 63 33 9 80 21 105 27
83 22 183 29 395 25 151 -2 231 -8 285 -20z"/>
<path d="M6645 7546 c-58 -16 -96 -39 -143 -86 -49 -49 -67 -103 -58 -173 5
-48 16 -72 171 -392 45 -93 115 -237 155 -320 40 -82 106 -220 147 -305 42
-85 118 -241 169 -346 52 -105 94 -196 94 -203 0 -6 5 -11 10 -11 6 0 10 -5
10 -11 0 -7 18 -49 40 -95 77 -161 179 -224 346 -211 62 5 86 12 131 39 30 18
67 49 82 68 28 36 221 419 221 439 0 6 5 11 10 11 6 0 10 6 10 14 0 8 20 54
44 103 25 48 84 169 131 268 48 99 122 252 165 340 42 88 109 225 147 305 154
317 156 323 128 398 -25 65 -42 87 -100 126 -116 77 -255 73 -340 -10 -39 -37
-66 -86 -140 -249 -15 -33 -42 -91 -60 -130 -35 -75 -88 -191 -110 -240 -8
-16 -34 -73 -59 -125 -24 -52 -56 -122 -71 -155 -46 -103 -57 -127 -105 -230
-25 -55 -59 -128 -75 -162 -16 -35 -32 -63 -36 -63 -7 0 -18 22 -64 125 -15
33 -47 103 -71 155 -25 52 -51 109 -58 125 -8 17 -27 59 -44 95 -47 100 -143
308 -192 415 -10 22 -38 83 -63 135 -68 143 -107 231 -107 239 0 4 -20 28 -45
54 -69 69 -169 93 -270 63z"/>
</g>
</svg>
